<svg enable-background="new 0 0 577.7 159.1" viewBox="0 0 577.7 159.1" xmlns="http://www.w3.org/2000/svg"><path d="m39.7 0c-21.9 0-39.7 17.8-39.7 39.7s17.8 39.7 39.7 39.7 39.7-17.8 39.7-39.7c0-21.9-17.8-39.7-39.7-39.7zm10 41.3h-7v25.4h-10.5v-25.4h-5.2v-8.8h5.2v-2c.1-2.1 0-4.2.2-6.3.6-4.9 3.7-7.8 8.6-8.2.8-.1 1.6-.2 2.4-.2h7.2v8.7h-4.6c-2.5 0-3.3.8-3.3 3.2v4.7h7.9z" fill="#fff"/><path d="m451.8 49.3v8.4c.1.5-.1 1-.5 1.4s-.9.6-1.5.5c-.6-.2-.5-.8-.5-1.3v-10.1h-2.5c0 .1-.1.2-.1.3v11.4c0 .2 0 .5.1.7.1.9.9 1.5 1.8 1.4.9-.1 1.7-.4 2.3-1l.7-.5.2 1.2h2.5v-13.6h-2.6c.1.4.1.8.1 1.2z" fill="#fff"/><path d="m464.1 49.8c-.3-1.3-1.6-2.2-2.9-1.9-.3.1-.6.2-.9.4s-.6.4-1.1.8v-5.9h-2.5v18.5h2.4l.3-.8c.3.2.5.4.7.5.9.6 2 .7 2.9.2s1.4-1.4 1.3-2.4v-8.1c0-.4-.1-.9-.2-1.3zm-2.5 8.9c.1.5-.2 1.1-.8 1.2h-.1-.2c-.7 0-1.3-.5-1.3-1.2v-7.5c-.1-.5.2-1 .8-1.1h.2c.6-.1 1.2.2 1.3.8v.2c.1.3.1.6.1.9z" fill="#fff"/><path d="m436.2 43.3v2.5h3.1v12c-.1 1.3 0 2.6.1 3.9h2.9v-15.9h3.1v-2.5c-3.1-.2-6.1-.2-9.2 0z" fill="#fff"/><path d="m455 0c-21.9 0-39.7 17.8-39.7 39.7s17.8 39.7 39.7 39.7 39.7-17.8 39.7-39.7-17.8-39.7-39.7-39.7zm6 16c1-.1 2-.1 3 0v11.2c-.1.5 0 1 .4 1.4 1 .2 1.9-.4 2.1-1.4v-.1-11.1h3.1v15.2h-3l-.1-1.4c-.2.2-.5.3-.6.5-.7.6-1.5 1-2.4 1.2-1.1.3-2.2-.3-2.5-1.3 0 0 0 0 0-.1s0-.2-.1-.2c-.1-.3-.1-.6-.1-.9v-12.4c.2-.2.2-.4.2-.6zm-8.2-.3c1-.2 2-.1 2.9.1 1.7.4 2.9 1.9 2.8 3.7v7.8c0 2.9-1.8 4.5-4.7 4.4-2.2.1-4.2-1.6-4.3-3.8v-.1-8c-.2-2 1.3-3.8 3.3-4.1zm-11.5-5.2 2.2 8c1-2.6 1.5-5.4 2.4-8h3.5c-.1.4-.2.8-.4 1.1-1.1 3.2-2.1 6.4-3.2 9.7-.3.9-.4 1.8-.4 2.7v7.2h-3.5c0-.4-.1-.8-.1-1.1v-5.9c0-.8-.1-1.6-.4-2.3-1.1-3.4-2.2-6.8-3.3-10.1-.1-.4-.2-.7-.3-1.2zm36.7 51.2c-.4 3.1-2.9 5.6-6.1 5.9-11.2.7-22.5.7-33.7 0-3.2-.3-5.7-2.7-6.1-5.9-.4-6.1-.4-12.1 0-18.2.4-3.1 2.9-5.6 6.1-5.9 11.2-.7 22.5-.7 33.7 0 3.2.3 5.7 2.7 6.1 5.9.5 6.1.5 12.1 0 18.2z" fill="#fff"/><path d="m470.6 47.7c-1.9-.4-3.8.7-4.5 2.5-.2.5-.3 1.1-.3 1.7v5.9c0 .5.1.9.2 1.4.3 1.7 1.7 2.9 3.4 2.9h1.1c1.9-.1 3.4-1.8 3.3-3.7v-.1c0-.3-.1-.7-.2-1h-2.4c0 .5-.1 1.1-.2 1.6-.1.6-.7 1-1.3.9h-.1c-.1 0-.2-.1-.3-.1-.4-.2-.7-.7-.6-1.2v-3.3h5.1c0-.3.1-.5.1-.7v-3.4c-.1-1.8-1.5-3.3-3.3-3.4zm-2 5.4v-2c.1-.6.7-1.1 1.3-1h.1c.5.1.8.4.9.9.1.7.1 1.4.1 2.1z" fill="#fff"/><path d="m452.9 27.6c-.1.6.4 1.2 1 1.3.2 0 .4 0 .6-.1.6-.1 1-.7.9-1.3v-7.9c.1-.6-.3-1.2-.9-1.3 0 0 0 0-.1 0h-.4c-.6-.1-1.1.4-1.2 1v4.3c.1 1.3 0 2.7.1 4z" fill="#fff"/><path d="m205.9.1c-21.9 0-39.7 17.8-39.7 39.7s17.8 39.7 39.7 39.7 39.7-17.8 39.7-39.7c0-21.9-17.6-39.7-39.5-39.7-.1 0-.1 0-.2 0zm-5.1 40.5c0 .4 0 .7-.1 1.1l11.4 5.7c4.1-3.8 10.5-3.6 14.3.5s3.6 10.5-.5 14.3-10.5 3.6-14.3-.5c-1.7-1.9-2.7-4.3-2.7-6.9 0-.4 0-.7.1-1.1l-11.5-5.7c-4.1 3.8-10.5 3.6-14.3-.5s-3.6-10.5.5-14.3c3.9-3.6 9.9-3.6 13.8 0l11.4-5.7c0-.4-.1-.7-.1-1.1 0-5.6 4.5-10.2 10.1-10.2s10.2 4.5 10.2 10.1-4.5 10.2-10.1 10.2c-2.6 0-5.1-1-7-2.7l-11.4 5.7c.1.4.2.7.2 1.1z" fill="#fff"/><path d="m289.3 0c-21.9 0-39.7 17.8-39.7 39.7s17.8 39.7 39.7 39.7 39.7-17.8 39.7-39.7-17.8-39.7-39.7-39.7zm11.2 40.3c0 12.2-8.1 20.4-20.2 20.4-11.7.1-21.3-9.3-21.4-21 .2-11.8 10-21.2 21.8-21 5 .1 9.8 1.9 13.6 5.2l-5.4 6.1c-2.4-2-5.4-3.2-8.6-3.2-7.1 0-12.9 5.8-12.9 12.9s5.8 12.9 12.9 12.9c6.1 0 10.1-2.9 11.4-8.2h-11.3v-8.1h20.1zm16.1.9v6.2h-5v-6.2h-6.2v-5h6.2v-6.2h5v6.2h6.2v5z" fill="#fff"/><path d="m372.5 0c-21.9 0-39.7 17.8-39.7 39.7s17.8 39.7 39.7 39.7 39.7-17.8 39.7-39.7-17.8-39.7-39.7-39.7zm-10.7 58.5h-8.8v-26.9h8.8zm.5-34c-.6 2.1-2.7 3.6-4.9 3.4-3.6 0-5.9-3-4.7-6.3.9-2.4 3.8-3.6 6.5-2.8 2.4.7 3.8 3.3 3.1 5.7zm31.9 33.3v.6h-8.9v-14c0-1.1-.1-2.2-.4-3.2-.6-2.3-3-3.7-5.3-3.2-.6.2-1.2.5-1.7.9-1.3 1-2.1 2.5-2.1 4.2v15.3h-8.8v-26.8h8.9v3.5l.3-.3c2.6-3.7 6.3-4.6 10.4-3.7s6.4 3.8 7.2 7.8c.3 1.3.4 2.7.4 4z" fill="#fff"/><g fill="#d4d4d4"><path d="m39.7 79.5c-21.9 0-39.7 17.8-39.7 39.7s17.8 39.7 39.7 39.7 39.7-17.8 39.7-39.7c0-21.9-17.7-39.7-39.7-39.7zm10 41.3h-7v25.4h-10.5v-25.3h-5.2v-8.8h5.2v-2c.1-2.1 0-4.2.2-6.3.6-4.9 3.7-7.8 8.6-8.3.8-.1 1.6-.2 2.4-.2h7.2v8.7h-4.6c-2.5 0-3.3.8-3.3 3.2v4.7h7.9z"/><path d="m451.8 128.8v8.4c.1.5-.1 1-.5 1.4s-.9.6-1.5.5c-.6-.2-.5-.8-.5-1.3v-10.1h-2.5c0 .1-.1.2-.1.3v11.4c0 .2 0 .5.1.7.1.9.9 1.5 1.8 1.4.9-.1 1.7-.4 2.3-1l.7-.6.2 1.2h2.5v-13.5h-2.6c.1.4.1.8.1 1.2z"/><path d="m464.1 129.3c-.3-1.3-1.6-2.2-2.9-1.9-.3.1-.6.2-.9.4s-.6.4-1.1.8v-5.9h-2.5v18.5h2.4l.3-.8c.3.2.5.4.7.5.9.6 2 .7 2.9.2s1.4-1.4 1.3-2.4v-8.1c0-.4-.1-.9-.2-1.3zm-2.5 9c.1.5-.2 1.1-.8 1.2h-.1-.2c-.7 0-1.3-.5-1.3-1.2v-7.5c-.1-.5.2-1 .8-1.1h.2c.6-.1 1.2.2 1.3.8v.2c.1.3.1.6.1.9z"/><path d="m436.2 122.9v2.5h3.1v12c-.1 1.3 0 2.6.1 3.9h2.9v-15.9h3.1v-2.4c-3.1-.4-6.1-.4-9.2-.1z"/><path d="m452.9 107.2c-.1.6.4 1.2 1 1.3.2 0 .4 0 .6-.1.6-.1 1-.7.9-1.3v-7.9c.1-.6-.3-1.2-.9-1.3 0 0 0 0-.1 0h-.4c-.6-.1-1.1.4-1.2 1v4.3c.1 1.3 0 2.6.1 4z"/><path d="m470.6 127.3c-1.9-.4-3.8.7-4.5 2.5-.2.5-.3 1.1-.3 1.7v5.9c0 .5.1.9.2 1.4.3 1.7 1.7 2.9 3.4 2.9h1.1c1.9-.1 3.4-1.8 3.3-3.7v-.1c0-.3-.1-.7-.2-1h-2.4c0 .5-.1 1.1-.2 1.6-.1.6-.7 1-1.3.9h-.1c-.1 0-.2-.1-.3-.1-.4-.2-.7-.7-.6-1.2v-3.4h5.1c0-.3.1-.5.1-.7v-3.4c-.1-1.8-1.5-3.2-3.3-3.3zm-2 5.3v-2c.1-.6.7-1.1 1.3-1h.1c.5.1.8.4.9.9.1.7.1 1.4.1 2.1z"/><path d="m455 79.6c-21.9 0-39.7 17.8-39.7 39.7s17.8 39.7 39.7 39.7 39.7-17.8 39.7-39.7-17.8-39.7-39.7-39.7zm6 16c1-.1 2-.1 3 0v11.2c-.1.5 0 1 .4 1.4 1 .2 1.9-.4 2.1-1.4v-.1-11h3.1v15.2h-3l-.1-1.4c-.2.2-.5.3-.6.5-.7.6-1.5 1-2.4 1.2-1.1.3-2.2-.3-2.5-1.3 0 0 0 0 0-.1s0-.2-.1-.2c-.1-.3-.1-.6-.1-.9v-12.4c.1-.2.2-.5.2-.7zm-8.2-.3c1-.2 2-.1 2.9.1 1.7.4 2.9 1.9 2.9 3.6v7.8c0 2.9-1.8 4.5-4.7 4.4-2.2.1-4.2-1.6-4.3-3.8v-.1-8c-.2-2 1.2-3.8 3.2-4zm-11.5-5.2 2.2 8c1-2.6 1.5-5.4 2.4-8h3.5c-.1.4-.2.8-.4 1.1-1.1 3.2-2.1 6.4-3.2 9.7-.3.9-.4 1.8-.4 2.7v7.2h-3.5c0-.4-.1-.8-.1-1.1v-5.9c0-.8-.1-1.6-.4-2.3l-3.3-10.2c-.1-.4-.2-.8-.3-1.2zm36.7 51.2c-.4 3.1-2.9 5.6-6.1 5.9-11.2.7-22.5.7-33.7 0-3.2-.3-5.7-2.7-6.1-5.9-.4-6.1-.4-12.1 0-18.2.4-3.1 2.9-5.6 6.1-5.9 11.2-.7 22.5-.7 33.7 0 3.1.3 5.7 2.7 6.1 5.8.5 6.1.5 12.2 0 18.3z"/><path d="m205.9 79.7c-21.9 0-39.7 17.8-39.7 39.7s17.8 39.7 39.7 39.7 39.7-17.8 39.7-39.7c.1-21.8-17.5-39.6-39.4-39.7-.1 0-.2 0-.3 0zm-5.1 40.5c0 .4 0 .7-.1 1.1l11.4 5.7c4.1-3.8 10.5-3.6 14.3.5s3.6 10.5-.5 14.3-10.5 3.6-14.3-.5c-1.7-1.9-2.7-4.3-2.7-6.9 0-.4 0-.7.1-1.1l-11.4-5.7c-4.1 3.8-10.5 3.6-14.3-.5s-3.6-10.5.5-14.3c3.9-3.6 9.9-3.6 13.8 0l11.4-5.7c0-.3-.1-.7-.1-1.1 0-5.6 4.5-10.2 10.1-10.2s10.2 4.5 10.2 10.1-4.5 10.2-10.1 10.2c-2.6 0-5.1-1-7-2.7l-11.4 5.7c0 .4.1.7.1 1.1z"/><path d="m289.3 79.6c-21.9 0-39.7 17.8-39.7 39.7s17.8 39.7 39.7 39.7 39.7-17.8 39.7-39.7-17.8-39.7-39.7-39.7zm11.2 40.3c0 12.2-8.1 20.4-20.2 20.4-11.6 0-21-9.4-21-21s9.4-21 21-21c5.1 0 10.1 1.8 14 5.2l-5.4 6.1c-2.4-2-5.4-3.2-8.6-3.2-7.1 0-12.9 5.8-12.9 12.9s5.8 12.9 12.9 12.9c6.1 0 10.1-2.9 11.4-8.2h-11.3v-8.1h20.1zm16.1.9v6.2h-5v-6.2h-6.2v-5h6.2v-6.2h5v6.2h6.2v5z"/><path d="m372.5 79.6c-21.9 0-39.7 17.8-39.7 39.7s17.8 39.7 39.7 39.7 39.7-17.8 39.7-39.7-17.8-39.7-39.7-39.7zm-10.7 58.4h-8.8v-26.8h8.8zm.5-34c-.6 2.1-2.7 3.6-4.9 3.4-3.6 0-5.9-3-4.7-6.3.9-2.4 3.8-3.6 6.5-2.8 2.4.8 3.8 3.3 3.1 5.7zm31.9 33.4v.6h-8.9v-14c0-1.1-.1-2.2-.4-3.2-.6-2.3-3-3.7-5.3-3.2-.6.2-1.2.5-1.7.9-1.3 1-2.1 2.5-2.1 4.2v15.3h-8.8v-26.8h8.9v3.5l.3-.3c2.6-3.7 6.3-4.6 10.4-3.7s6.4 3.8 7.2 7.8c.3 1.3.4 2.7.4 4z"/><path d="m560 103.2c-.5-1.2-1.2-2.2-2.1-3.1s-1.9-1.7-3.1-2.1c-1.7-.6-3.4-.9-5.1-.9-2.9-.1-3.8-.1-11.2-.1s-8.2 0-11.2.1c-1.8 0-3.5.3-5.1.9-1.2.5-2.2 1.2-3.1 2.1s-1.7 1.9-2.1 3.1c-.6 1.7-.9 3.4-.9 5.1-.1 2.9-.1 3.8-.1 11.2s0 8.3.1 11.1c0 1.8.3 3.5.9 5.1.5 1.2 1.2 2.2 2.1 3.1s1.9 1.7 3.1 2.1c1.7.6 3.4.9 5.1.9 2.9.1 3.8.1 11.2.1s8.2 0 11.2-.1c1.8 0 3.5-.3 5.1-.9 1.2-.5 2.2-1.2 3.1-2.1s1.7-1.9 2.1-3.1c.6-1.7.9-3.4.9-5.1.1-2.9.1-3.8.1-11.2s0-8.2-.1-11.2c0-1.6-.3-3.3-.9-5zm-22 29.8c-7.7 0-14-6.3-14-14s6.3-14 14-14 14 6.3 14 14-6.3 14-14 14zm15-26c-1.7 0-3-1.3-3-3s1.3-3 3-3 3 1.3 3 3-1.3 3-3 3z"/><path d="m538 79.6c-21.9 0-39.7 17.8-39.7 39.7s17.8 39.7 39.7 39.7 39.7-17.8 39.7-39.7-17.8-39.7-39.7-39.7zm27.9 51.3c0 2.3-.5 4.5-1.3 6.7-1.5 3.7-4.4 6.6-8.1 8.1-2.1.8-4.4 1.2-6.7 1.3-2.9.1-3.9.1-11.3.1s-8.4 0-11.3-.1c-2.3 0-4.5-.5-6.7-1.3-3.7-1.5-6.6-4.4-8.1-8.1-.8-2.1-1.2-4.4-1.3-6.7-.1-2.9-.1-3.9-.1-11.4s0-8.4.1-11.3c0-2.3.5-4.5 1.3-6.7 1.5-3.7 4.4-6.6 8.1-8.1 2.1-.8 4.4-1.2 6.7-1.3 2.9-.1 3.8-.1 11.3-.1s8.4 0 11.3.1c2.3 0 4.5.5 6.7 1.3 3.7 1.5 6.6 4.4 8.1 8.1.8 2.1 1.2 4.4 1.3 6.7.1 2.9.1 3.9.1 11.3s0 8.4-.1 11.4z"/><path d="m538 109.9c-5 0-9.1 4.1-9.1 9.1s4.1 9.1 9.1 9.1 9.1-4.1 9.1-9.1c0-5-4.1-9.1-9.1-9.1z"/></g><path d="m560 23.6c-.5-1.2-1.2-2.2-2.1-3.1s-1.9-1.7-3.1-2.1c-1.7-.6-3.4-.9-5.1-.9-2.9-.1-3.8-.1-11.2-.1s-8.2 0-11.2.1c-1.8 0-3.5.3-5.1.9-1.2.5-2.2 1.2-3.1 2.1s-1.7 1.9-2.1 3.1c-.6 1.7-.9 3.4-.9 5.1-.1 2.9-.1 3.8-.1 11.2s0 8.3.1 11.2c0 1.8.3 3.5.9 5.1.5 1.2 1.2 2.2 2.1 3.1s1.9 1.7 3.1 2.1c1.7.6 3.4.9 5.1.9 2.9.1 3.8.1 11.2.1s8.2 0 11.2-.1c1.8 0 3.5-.3 5.1-.9 1.2-.5 2.2-1.2 3.1-2.1s1.7-1.9 2.1-3.1c.6-1.7.9-3.4.9-5.1.1-2.9.1-3.8.1-11.1s0-8.2-.1-11.1c0-1.9-.3-3.6-.9-5.3zm-22 29.8c-7.7 0-14-6.3-14-14s6.3-14 14-14 14 6.3 14 14-6.3 14-14 14zm15-26c-1.7 0-3-1.3-3-3s1.3-3 3-3 3 1.3 3 3-1.3 3-3 3z" fill="#fff"/><path d="m538 0c-21.9 0-39.7 17.8-39.7 39.7s17.8 39.7 39.7 39.7 39.7-17.8 39.7-39.7-17.8-39.7-39.7-39.7zm27.9 51.2c0 2.3-.5 4.5-1.3 6.7-1.5 3.7-4.4 6.6-8.1 8.1-2.1.8-4.4 1.2-6.7 1.3-2.9.1-3.9.1-11.3.1s-8.4 0-11.3-.1c-2.3 0-4.5-.5-6.7-1.3-3.7-1.5-6.6-4.4-8.1-8.1-.8-2.1-1.2-4.4-1.3-6.7-.1-2.9-.1-3.9-.1-11.3s0-8.4.1-11.4c0-2.3.5-4.5 1.3-6.7 1.5-3.7 4.4-6.6 8.1-8.1 2.1-.8 4.4-1.2 6.7-1.3 2.9-.1 3.9-.1 11.3-.1s8.4 0 11.3.1c2.3 0 4.5.5 6.7 1.3 3.7 1.5 6.6 4.4 8.1 8.1.8 2.1 1.2 4.4 1.3 6.7.1 2.9.1 3.9.1 11.4s0 8.4-.1 11.3z" fill="#fff"/><path d="m538 30.3c-5 0-9.1 4.1-9.1 9.1s4.1 9.1 9.1 9.1 9.1-4.1 9.1-9.1c0-5-4.1-9.1-9.1-9.1z" fill="#fff"/><path d="m122.9 79.4c21.9 0 39.7-17.8 39.7-39.7s-17.8-39.7-39.7-39.7-39.7 17.8-39.7 39.7 17.8 39.7 39.7 39.7zm-24.9-65.2h14.8l12.9 18.8 16.1-18.7h4.4l-18.5 21.6 20.2 29.3h-14.9l-13.6-19.8-17 19.8h-4.4l19.4-22.6z" fill="#fff"/><path d="m121.6 42.8 13.4 19.2h6.8l-16.5-23.5-1.9-2.8-12.7-18.1h-6.7l15.6 22.4z" fill="#fff"/><path d="m122.9 79.6c-22 0-39.8 17.8-39.8 39.7s17.8 39.7 39.7 39.7 39.7-17.8 39.7-39.7c.1-21.9-17.7-39.7-39.6-39.7zm10 66.7-13.6-19.8-17 19.8h-4.3l19.4-22.6-19.4-28.3h14.8l12.9 18.7 16.1-18.7h4.4l-18.6 21.6 20.2 29.3z" fill="#d4d4d4"/><path d="m123.3 116.8-12.6-18.1h-6.8l15.7 22.4 2 2.8 13.4 19.2h6.8l-16.5-23.5z" fill="#d4d4d4"/></svg>